<mxfile host="65bd71144e">
    <diagram id="eI575KwfOCtLz1IOfRIN" name="Page-1">
        <mxGraphModel dx="931" dy="370" grid="1" gridSize="10" guides="1" tooltips="1" connect="1" arrows="1" fold="1" page="1" pageScale="1" pageWidth="850" pageHeight="1100" math="0" shadow="0">
            <root>
                <mxCell id="0"/>
                <mxCell id="1" parent="0"/>
                <mxCell id="2" value="Student" style="rounded=0;whiteSpace=wrap;html=1;" vertex="1" parent="1">
                    <mxGeometry x="110" y="580" width="120" height="60" as="geometry"/>
                </mxCell>
                <mxCell id="3" value="Learns" style="html=1;whiteSpace=wrap;aspect=fixed;shape=isoRectangle;" vertex="1" parent="1">
                    <mxGeometry x="350" y="565" width="150" height="90" as="geometry"/>
                </mxCell>
                <mxCell id="4" value="Subject" style="rounded=0;whiteSpace=wrap;html=1;" vertex="1" parent="1">
                    <mxGeometry x="620" y="580" width="120" height="60" as="geometry"/>
                </mxCell>
                <mxCell id="10" value="" style="endArrow=none;html=1;elbow=vertical;exitX=1;exitY=0.5;exitDx=0;exitDy=0;exitPerimeter=0;entryX=0;entryY=0.5;entryDx=0;entryDy=0;" edge="1" parent="1" source="3" target="4">
                    <mxGeometry width="50" height="50" relative="1" as="geometry">
                        <mxPoint x="540" y="670" as="sourcePoint"/>
                        <mxPoint x="610" y="610" as="targetPoint"/>
                    </mxGeometry>
                </mxCell>
                <mxCell id="11" value="" style="endArrow=none;html=1;elbow=vertical;exitX=1;exitY=0.5;exitDx=0;exitDy=0;entryX=0.005;entryY=0.508;entryDx=0;entryDy=0;entryPerimeter=0;" edge="1" parent="1" source="2" target="3">
                    <mxGeometry width="50" height="50" relative="1" as="geometry">
                        <mxPoint x="510" y="620" as="sourcePoint"/>
                        <mxPoint x="630" y="620" as="targetPoint"/>
                    </mxGeometry>
                </mxCell>
                <mxCell id="12" value="&lt;u&gt;student id&lt;/u&gt;" style="ellipse;whiteSpace=wrap;html=1;" vertex="1" parent="1">
                    <mxGeometry x="110" y="440" width="120" height="80" as="geometry"/>
                </mxCell>
                <mxCell id="14" value="" style="endArrow=none;html=1;elbow=vertical;exitX=0.5;exitY=0;exitDx=0;exitDy=0;entryX=0.5;entryY=1;entryDx=0;entryDy=0;" edge="1" parent="1" source="2" target="12">
                    <mxGeometry width="50" height="50" relative="1" as="geometry">
                        <mxPoint x="130" y="550" as="sourcePoint"/>
                        <mxPoint x="251" y="551" as="targetPoint"/>
                    </mxGeometry>
                </mxCell>
                <mxCell id="15" value="&lt;u&gt;subject id&lt;/u&gt;" style="ellipse;whiteSpace=wrap;html=1;" vertex="1" parent="1">
                    <mxGeometry x="620" y="440" width="120" height="80" as="geometry"/>
                </mxCell>
                <mxCell id="16" value="" style="endArrow=none;html=1;elbow=vertical;exitX=0.5;exitY=0;exitDx=0;exitDy=0;entryX=0.5;entryY=1;entryDx=0;entryDy=0;" edge="1" parent="1" source="4" target="15">
                    <mxGeometry width="50" height="50" relative="1" as="geometry">
                        <mxPoint x="540" y="570" as="sourcePoint"/>
                        <mxPoint x="540" y="510" as="targetPoint"/>
                    </mxGeometry>
                </mxCell>
            </root>
        </mxGraphModel>
    </diagram>
</mxfile>